<mxfile host="app.diagrams.net" modified="2023-10-04T13:40:53.217Z" agent="Mozilla/5.0 (Windows NT 10.0; Win64; x64) AppleWebKit/537.36 (KHTML, like Gecko) Chrome/117.0.0.0 Safari/537.36" etag="1zFl_BD4Bx478MUUUqKP" version="22.0.2" type="device">
  <diagram name="Page-1" id="EN9GL7NKK6RQh_hEE5cA">
    <mxGraphModel dx="936" dy="835" grid="1" gridSize="10" guides="1" tooltips="1" connect="1" arrows="1" fold="1" page="1" pageScale="1" pageWidth="850" pageHeight="1100" math="0" shadow="0">
      <root>
        <mxCell id="0" />
        <mxCell id="1" parent="0" />
        <mxCell id="LuBEs2lfz9QCBgWBiHVj-24" style="edgeStyle=orthogonalEdgeStyle;rounded=1;orthogonalLoop=1;jettySize=auto;html=1;entryX=0;entryY=0.5;entryDx=0;entryDy=0;" parent="1" edge="1">
          <mxGeometry relative="1" as="geometry">
            <mxPoint x="220" y="610" as="sourcePoint" />
            <mxPoint x="440" y="630.0000000000001" as="targetPoint" />
            <Array as="points">
              <mxPoint x="220" y="630" />
            </Array>
          </mxGeometry>
        </mxCell>
        <mxCell id="vXCZ4wz8MtLpxU2cb6QZ-22" value="Give Employee Details" style="edgeLabel;html=1;align=center;verticalAlign=middle;resizable=0;points=[];fontStyle=2;fontSize=12;rounded=1;" parent="LuBEs2lfz9QCBgWBiHVj-24" vertex="1" connectable="0">
          <mxGeometry x="-0.4148" y="-1" relative="1" as="geometry">
            <mxPoint x="30" y="-1" as="offset" />
          </mxGeometry>
        </mxCell>
        <mxCell id="LuBEs2lfz9QCBgWBiHVj-26" style="edgeStyle=orthogonalEdgeStyle;rounded=1;orthogonalLoop=1;jettySize=auto;html=1;exitX=0.701;exitY=0;exitDx=0;exitDy=0;entryX=0;entryY=0.5;entryDx=0;entryDy=0;exitPerimeter=0;" parent="1" source="LuBEs2lfz9QCBgWBiHVj-1" target="LuBEs2lfz9QCBgWBiHVj-6" edge="1">
          <mxGeometry relative="1" as="geometry">
            <Array as="points">
              <mxPoint x="180" y="400" />
            </Array>
          </mxGeometry>
        </mxCell>
        <mxCell id="vXCZ4wz8MtLpxU2cb6QZ-13" value="Give Location Details" style="edgeLabel;html=1;align=center;verticalAlign=middle;resizable=0;points=[];fontStyle=2;fontSize=12;rounded=1;" parent="LuBEs2lfz9QCBgWBiHVj-26" vertex="1" connectable="0">
          <mxGeometry x="0.0262" relative="1" as="geometry">
            <mxPoint x="-3" y="-1" as="offset" />
          </mxGeometry>
        </mxCell>
        <mxCell id="LuBEs2lfz9QCBgWBiHVj-27" style="edgeStyle=orthogonalEdgeStyle;rounded=1;orthogonalLoop=1;jettySize=auto;html=1;exitX=0.5;exitY=0;exitDx=0;exitDy=0;entryX=0;entryY=0.5;entryDx=0;entryDy=0;" parent="1" source="LuBEs2lfz9QCBgWBiHVj-1" target="LuBEs2lfz9QCBgWBiHVj-5" edge="1">
          <mxGeometry relative="1" as="geometry">
            <Array as="points">
              <mxPoint x="140" y="320" />
            </Array>
          </mxGeometry>
        </mxCell>
        <mxCell id="vXCZ4wz8MtLpxU2cb6QZ-11" value="Give Inquiry&amp;nbsp;Details" style="edgeLabel;html=1;align=center;verticalAlign=middle;resizable=0;points=[];fontStyle=2;fontSize=12;rounded=1;" parent="LuBEs2lfz9QCBgWBiHVj-27" vertex="1" connectable="0">
          <mxGeometry x="0.0783" y="2" relative="1" as="geometry">
            <mxPoint x="22" y="1" as="offset" />
          </mxGeometry>
        </mxCell>
        <mxCell id="LuBEs2lfz9QCBgWBiHVj-28" style="edgeStyle=orthogonalEdgeStyle;rounded=1;orthogonalLoop=1;jettySize=auto;html=1;exitX=0.299;exitY=0;exitDx=0;exitDy=0;entryX=0;entryY=0.5;entryDx=0;entryDy=0;exitPerimeter=0;" parent="1" source="LuBEs2lfz9QCBgWBiHVj-1" target="LuBEs2lfz9QCBgWBiHVj-4" edge="1">
          <mxGeometry relative="1" as="geometry">
            <Array as="points">
              <mxPoint x="100" y="240" />
            </Array>
          </mxGeometry>
        </mxCell>
        <mxCell id="vXCZ4wz8MtLpxU2cb6QZ-9" value="Give Fleet Details" style="edgeLabel;html=1;align=center;verticalAlign=middle;resizable=0;points=[];fontStyle=2;fontSize=12;rounded=1;" parent="LuBEs2lfz9QCBgWBiHVj-28" vertex="1" connectable="0">
          <mxGeometry x="0.249" y="2" relative="1" as="geometry">
            <mxPoint x="16" y="2" as="offset" />
          </mxGeometry>
        </mxCell>
        <mxCell id="LuBEs2lfz9QCBgWBiHVj-30" style="edgeStyle=orthogonalEdgeStyle;rounded=1;orthogonalLoop=1;jettySize=auto;html=1;exitX=0.097;exitY=-0.004;exitDx=0;exitDy=0;entryX=0;entryY=0.5;entryDx=0;entryDy=0;exitPerimeter=0;" parent="1" source="LuBEs2lfz9QCBgWBiHVj-1" target="LuBEs2lfz9QCBgWBiHVj-3" edge="1">
          <mxGeometry relative="1" as="geometry">
            <Array as="points">
              <mxPoint x="59" y="160" />
            </Array>
          </mxGeometry>
        </mxCell>
        <mxCell id="vXCZ4wz8MtLpxU2cb6QZ-7" value="Give Facility Details" style="edgeLabel;html=1;align=center;verticalAlign=middle;resizable=0;points=[];fontStyle=2;fontSize=12;rounded=1;" parent="LuBEs2lfz9QCBgWBiHVj-30" vertex="1" connectable="0">
          <mxGeometry x="0.4265" relative="1" as="geometry">
            <mxPoint x="4" as="offset" />
          </mxGeometry>
        </mxCell>
        <mxCell id="LuBEs2lfz9QCBgWBiHVj-31" style="edgeStyle=orthogonalEdgeStyle;rounded=1;orthogonalLoop=1;jettySize=auto;html=1;exitX=0;exitY=0.25;exitDx=0;exitDy=0;entryX=0;entryY=0.5;entryDx=0;entryDy=0;" parent="1" source="LuBEs2lfz9QCBgWBiHVj-1" target="LuBEs2lfz9QCBgWBiHVj-2" edge="1">
          <mxGeometry relative="1" as="geometry" />
        </mxCell>
        <mxCell id="vXCZ4wz8MtLpxU2cb6QZ-5" value="Give Country Details" style="edgeLabel;html=1;align=center;verticalAlign=middle;resizable=0;points=[];fontStyle=2;fontSize=12;rounded=1;" parent="LuBEs2lfz9QCBgWBiHVj-31" vertex="1" connectable="0">
          <mxGeometry x="0.6097" y="-2" relative="1" as="geometry">
            <mxPoint x="-21" y="-2" as="offset" />
          </mxGeometry>
        </mxCell>
        <mxCell id="LuBEs2lfz9QCBgWBiHVj-32" style="edgeStyle=orthogonalEdgeStyle;rounded=1;orthogonalLoop=1;jettySize=auto;html=1;exitX=0;exitY=0.75;exitDx=0;exitDy=0;entryX=0;entryY=0.5;entryDx=0;entryDy=0;" parent="1" source="LuBEs2lfz9QCBgWBiHVj-1" target="LuBEs2lfz9QCBgWBiHVj-15" edge="1">
          <mxGeometry relative="1" as="geometry" />
        </mxCell>
        <mxCell id="vXCZ4wz8MtLpxU2cb6QZ-32" value="Give Vehical Details" style="edgeLabel;html=1;align=center;verticalAlign=middle;resizable=0;points=[];fontStyle=2;fontSize=12;rounded=1;" parent="LuBEs2lfz9QCBgWBiHVj-32" vertex="1" connectable="0">
          <mxGeometry x="0.4891" y="-1" relative="1" as="geometry">
            <mxPoint x="29" y="-1" as="offset" />
          </mxGeometry>
        </mxCell>
        <mxCell id="LuBEs2lfz9QCBgWBiHVj-33" style="edgeStyle=orthogonalEdgeStyle;rounded=1;orthogonalLoop=1;jettySize=auto;html=1;entryX=0;entryY=0.5;entryDx=0;entryDy=0;exitX=0.1;exitY=1;exitDx=0;exitDy=0;exitPerimeter=0;" parent="1" source="LuBEs2lfz9QCBgWBiHVj-1" target="LuBEs2lfz9QCBgWBiHVj-14" edge="1">
          <mxGeometry relative="1" as="geometry">
            <mxPoint x="60" y="611" as="sourcePoint" />
            <Array as="points">
              <mxPoint x="60" y="940" />
            </Array>
          </mxGeometry>
        </mxCell>
        <mxCell id="vXCZ4wz8MtLpxU2cb6QZ-30" value="Give Trip Details" style="edgeLabel;html=1;align=center;verticalAlign=middle;resizable=0;points=[];fontStyle=2;fontSize=12;rounded=1;" parent="LuBEs2lfz9QCBgWBiHVj-33" vertex="1" connectable="0">
          <mxGeometry x="0.3638" y="2" relative="1" as="geometry">
            <mxPoint x="19" y="1" as="offset" />
          </mxGeometry>
        </mxCell>
        <mxCell id="LuBEs2lfz9QCBgWBiHVj-34" style="edgeStyle=orthogonalEdgeStyle;rounded=1;orthogonalLoop=1;jettySize=auto;html=1;exitX=0.296;exitY=1.002;exitDx=0;exitDy=0;entryX=0;entryY=0.5;entryDx=0;entryDy=0;exitPerimeter=0;" parent="1" source="LuBEs2lfz9QCBgWBiHVj-1" target="LuBEs2lfz9QCBgWBiHVj-12" edge="1">
          <mxGeometry relative="1" as="geometry">
            <Array as="points">
              <mxPoint x="99" y="860" />
            </Array>
          </mxGeometry>
        </mxCell>
        <mxCell id="vXCZ4wz8MtLpxU2cb6QZ-28" value="Give Ticket Details" style="edgeLabel;html=1;align=center;verticalAlign=middle;resizable=0;points=[];fontStyle=2;fontSize=12;rounded=1;" parent="LuBEs2lfz9QCBgWBiHVj-34" vertex="1" connectable="0">
          <mxGeometry x="0.379" y="1" relative="1" as="geometry">
            <mxPoint x="-4" as="offset" />
          </mxGeometry>
        </mxCell>
        <mxCell id="LuBEs2lfz9QCBgWBiHVj-36" style="edgeStyle=orthogonalEdgeStyle;rounded=1;orthogonalLoop=1;jettySize=auto;html=1;exitX=0.5;exitY=1;exitDx=0;exitDy=0;entryX=0;entryY=0.5;entryDx=0;entryDy=0;" parent="1" source="LuBEs2lfz9QCBgWBiHVj-1" target="LuBEs2lfz9QCBgWBiHVj-13" edge="1">
          <mxGeometry relative="1" as="geometry" />
        </mxCell>
        <mxCell id="vXCZ4wz8MtLpxU2cb6QZ-26" value="Give Tax Details" style="edgeLabel;html=1;align=center;verticalAlign=middle;resizable=0;points=[];fontStyle=2;fontSize=12;rounded=1;" parent="LuBEs2lfz9QCBgWBiHVj-36" vertex="1" connectable="0">
          <mxGeometry x="0.1977" y="-2" relative="1" as="geometry">
            <mxPoint x="-1" y="-2" as="offset" />
          </mxGeometry>
        </mxCell>
        <mxCell id="LuBEs2lfz9QCBgWBiHVj-37" style="edgeStyle=orthogonalEdgeStyle;rounded=1;orthogonalLoop=1;jettySize=auto;html=1;exitX=0.7;exitY=1.002;exitDx=0;exitDy=0;entryX=0;entryY=0.5;entryDx=0;entryDy=0;exitPerimeter=0;" parent="1" source="LuBEs2lfz9QCBgWBiHVj-1" target="LuBEs2lfz9QCBgWBiHVj-11" edge="1">
          <mxGeometry relative="1" as="geometry">
            <Array as="points">
              <mxPoint x="180" y="700" />
            </Array>
          </mxGeometry>
        </mxCell>
        <mxCell id="vXCZ4wz8MtLpxU2cb6QZ-24" value="Give Stand Details" style="edgeLabel;html=1;align=center;verticalAlign=middle;resizable=0;points=[];fontStyle=2;fontSize=12;rounded=1;" parent="LuBEs2lfz9QCBgWBiHVj-37" vertex="1" connectable="0">
          <mxGeometry x="-0.2063" y="2" relative="1" as="geometry">
            <mxPoint x="36" y="1" as="offset" />
          </mxGeometry>
        </mxCell>
        <mxCell id="LuBEs2lfz9QCBgWBiHVj-47" style="edgeStyle=orthogonalEdgeStyle;rounded=1;orthogonalLoop=1;jettySize=auto;html=1;exitX=0.897;exitY=0.005;exitDx=0;exitDy=0;entryX=0;entryY=0;entryDx=0;entryDy=0;exitPerimeter=0;" parent="1" source="LuBEs2lfz9QCBgWBiHVj-1" target="LuBEs2lfz9QCBgWBiHVj-7" edge="1">
          <mxGeometry relative="1" as="geometry">
            <Array as="points">
              <mxPoint x="219" y="452" />
            </Array>
          </mxGeometry>
        </mxCell>
        <mxCell id="vXCZ4wz8MtLpxU2cb6QZ-15" value="Give Passenger Details" style="edgeLabel;html=1;align=center;verticalAlign=middle;resizable=0;points=[];fontStyle=2;fontSize=12;rounded=1;" parent="LuBEs2lfz9QCBgWBiHVj-47" vertex="1" connectable="0">
          <mxGeometry x="-0.3972" relative="1" as="geometry">
            <mxPoint x="26" as="offset" />
          </mxGeometry>
        </mxCell>
        <mxCell id="LuBEs2lfz9QCBgWBiHVj-1" value="&lt;h1&gt;USERS&lt;/h1&gt;&lt;h1&gt;[ PASSENGER ]&lt;/h1&gt;" style="rounded=1;whiteSpace=wrap;html=1;" parent="1" vertex="1">
          <mxGeometry x="40" y="470" width="200" height="140" as="geometry" />
        </mxCell>
        <mxCell id="LuBEs2lfz9QCBgWBiHVj-39" style="edgeStyle=orthogonalEdgeStyle;rounded=1;orthogonalLoop=1;jettySize=auto;html=1;exitX=0;exitY=1;exitDx=0;exitDy=0;" parent="1" edge="1">
          <mxGeometry relative="1" as="geometry">
            <mxPoint x="40" y="470" as="targetPoint" />
            <mxPoint x="262.0953326738136" y="108.6588475241914" as="sourcePoint" />
            <Array as="points">
              <mxPoint x="40" y="109" />
            </Array>
          </mxGeometry>
        </mxCell>
        <mxCell id="vXCZ4wz8MtLpxU2cb6QZ-6" value="Receive Country Details" style="edgeLabel;html=1;align=center;verticalAlign=middle;resizable=0;points=[];fontStyle=2;fontSize=12;rounded=1;" parent="LuBEs2lfz9QCBgWBiHVj-39" vertex="1" connectable="0">
          <mxGeometry x="-0.4667" relative="1" as="geometry">
            <mxPoint x="12" as="offset" />
          </mxGeometry>
        </mxCell>
        <mxCell id="LuBEs2lfz9QCBgWBiHVj-118" style="edgeStyle=orthogonalEdgeStyle;rounded=1;orthogonalLoop=1;jettySize=auto;html=1;exitX=1;exitY=0;exitDx=0;exitDy=0;entryX=0;entryY=0.25;entryDx=0;entryDy=0;" parent="1" source="LuBEs2lfz9QCBgWBiHVj-2" target="LuBEs2lfz9QCBgWBiHVj-69" edge="1">
          <mxGeometry relative="1" as="geometry">
            <Array as="points">
              <mxPoint x="620" y="52" />
              <mxPoint x="620" y="73" />
            </Array>
          </mxGeometry>
        </mxCell>
        <mxCell id="LuBEs2lfz9QCBgWBiHVj-126" value="Store Country Details" style="edgeLabel;html=1;align=center;verticalAlign=middle;resizable=0;points=[];fontSize=12;fontStyle=2;rounded=1;" parent="LuBEs2lfz9QCBgWBiHVj-118" vertex="1" connectable="0">
          <mxGeometry x="0.1353" y="-2" relative="1" as="geometry">
            <mxPoint x="-12" y="-2" as="offset" />
          </mxGeometry>
        </mxCell>
        <mxCell id="LuBEs2lfz9QCBgWBiHVj-2" value="Country&lt;br style=&quot;font-size: 13px;&quot;&gt;&lt;i&gt;&lt;br&gt;1.0&lt;/i&gt;&lt;span style=&quot;white-space: pre; font-size: 13px;&quot;&gt;&#x9;&lt;/span&gt;" style="ellipse;whiteSpace=wrap;html=1;fontStyle=1;verticalAlign=middle;labelPosition=center;verticalLabelPosition=middle;align=center;fontSize=13;spacingTop=10;rounded=1;" parent="1" vertex="1">
          <mxGeometry x="240" y="40" width="80" height="80" as="geometry" />
        </mxCell>
        <mxCell id="LuBEs2lfz9QCBgWBiHVj-116" style="edgeStyle=orthogonalEdgeStyle;rounded=1;orthogonalLoop=1;jettySize=auto;html=1;exitX=1;exitY=0;exitDx=0;exitDy=0;entryX=0;entryY=0.25;entryDx=0;entryDy=0;" parent="1" source="LuBEs2lfz9QCBgWBiHVj-3" target="LuBEs2lfz9QCBgWBiHVj-70" edge="1">
          <mxGeometry relative="1" as="geometry">
            <Array as="points">
              <mxPoint x="630" y="132" />
              <mxPoint x="630" y="153" />
            </Array>
          </mxGeometry>
        </mxCell>
        <mxCell id="LuBEs2lfz9QCBgWBiHVj-128" value="Store Facility Details" style="edgeLabel;html=1;align=center;verticalAlign=middle;resizable=0;points=[];fontStyle=2;fontSize=12;rounded=1;" parent="LuBEs2lfz9QCBgWBiHVj-116" vertex="1" connectable="0">
          <mxGeometry x="-0.0833" y="-4" relative="1" as="geometry">
            <mxPoint x="23" y="-4" as="offset" />
          </mxGeometry>
        </mxCell>
        <mxCell id="LuBEs2lfz9QCBgWBiHVj-3" value="Facility&lt;br style=&quot;font-size: 13px;&quot;&gt;&lt;i&gt;&lt;br&gt;2.0&lt;/i&gt;" style="ellipse;whiteSpace=wrap;html=1;fontStyle=1;verticalAlign=middle;labelPosition=center;verticalLabelPosition=middle;align=center;fontSize=13;spacingTop=10;rounded=1;" parent="1" vertex="1">
          <mxGeometry x="280" y="120" width="80" height="80" as="geometry" />
        </mxCell>
        <mxCell id="LuBEs2lfz9QCBgWBiHVj-114" style="edgeStyle=orthogonalEdgeStyle;rounded=1;orthogonalLoop=1;jettySize=auto;html=1;exitX=1;exitY=0;exitDx=0;exitDy=0;entryX=0;entryY=0.25;entryDx=0;entryDy=0;" parent="1" source="LuBEs2lfz9QCBgWBiHVj-4" target="LuBEs2lfz9QCBgWBiHVj-71" edge="1">
          <mxGeometry relative="1" as="geometry">
            <Array as="points">
              <mxPoint x="620" y="212" />
              <mxPoint x="620" y="233" />
            </Array>
          </mxGeometry>
        </mxCell>
        <mxCell id="LuBEs2lfz9QCBgWBiHVj-130" value="Store Fleet Details" style="edgeLabel;html=1;align=center;verticalAlign=middle;resizable=0;points=[];fontSize=12;fontStyle=2;rounded=1;" parent="LuBEs2lfz9QCBgWBiHVj-114" vertex="1" connectable="0">
          <mxGeometry x="-0.4199" y="1" relative="1" as="geometry">
            <mxPoint x="59" as="offset" />
          </mxGeometry>
        </mxCell>
        <mxCell id="LuBEs2lfz9QCBgWBiHVj-4" value="Fleet&lt;br style=&quot;font-size: 13px;&quot;&gt;&lt;i&gt;&lt;br&gt;3.0&lt;/i&gt;" style="ellipse;whiteSpace=wrap;html=1;fontStyle=1;verticalAlign=middle;labelPosition=center;verticalLabelPosition=middle;align=center;fontSize=13;spacingTop=10;rounded=1;" parent="1" vertex="1">
          <mxGeometry x="320" y="200" width="80" height="80" as="geometry" />
        </mxCell>
        <mxCell id="LuBEs2lfz9QCBgWBiHVj-110" style="edgeStyle=orthogonalEdgeStyle;rounded=1;orthogonalLoop=1;jettySize=auto;html=1;exitX=1;exitY=0;exitDx=0;exitDy=0;entryX=0;entryY=0.25;entryDx=0;entryDy=0;" parent="1" source="LuBEs2lfz9QCBgWBiHVj-5" target="LuBEs2lfz9QCBgWBiHVj-72" edge="1">
          <mxGeometry relative="1" as="geometry">
            <Array as="points">
              <mxPoint x="620" y="292" />
              <mxPoint x="620" y="313" />
            </Array>
          </mxGeometry>
        </mxCell>
        <mxCell id="LuBEs2lfz9QCBgWBiHVj-132" value="Store Inquiry Details" style="edgeLabel;html=1;align=center;verticalAlign=middle;resizable=0;points=[];fontSize=12;fontStyle=2;rounded=1;" parent="LuBEs2lfz9QCBgWBiHVj-110" vertex="1" connectable="0">
          <mxGeometry x="-0.3752" y="2" relative="1" as="geometry">
            <mxPoint x="18" as="offset" />
          </mxGeometry>
        </mxCell>
        <mxCell id="LuBEs2lfz9QCBgWBiHVj-5" value="Inquiry&lt;br style=&quot;font-size: 13px;&quot;&gt;&lt;i&gt;&lt;br&gt;4.0&lt;/i&gt;" style="ellipse;whiteSpace=wrap;html=1;fontStyle=1;verticalAlign=middle;labelPosition=center;verticalLabelPosition=middle;align=center;fontSize=13;spacingTop=10;rounded=1;" parent="1" vertex="1">
          <mxGeometry x="360" y="280" width="80" height="80" as="geometry" />
        </mxCell>
        <mxCell id="LuBEs2lfz9QCBgWBiHVj-106" style="edgeStyle=orthogonalEdgeStyle;rounded=1;orthogonalLoop=1;jettySize=auto;html=1;exitX=1;exitY=0;exitDx=0;exitDy=0;entryX=0;entryY=0.25;entryDx=0;entryDy=0;" parent="1" source="LuBEs2lfz9QCBgWBiHVj-6" target="LuBEs2lfz9QCBgWBiHVj-73" edge="1">
          <mxGeometry relative="1" as="geometry">
            <Array as="points">
              <mxPoint x="620" y="372" />
              <mxPoint x="620" y="393" />
            </Array>
          </mxGeometry>
        </mxCell>
        <mxCell id="LuBEs2lfz9QCBgWBiHVj-134" value="Store Location&amp;nbsp;Details" style="edgeLabel;html=1;align=center;verticalAlign=middle;resizable=0;points=[];fontSize=12;fontStyle=2;rounded=1;" parent="LuBEs2lfz9QCBgWBiHVj-106" vertex="1" connectable="0">
          <mxGeometry x="-0.2892" y="1" relative="1" as="geometry">
            <mxPoint x="-16" as="offset" />
          </mxGeometry>
        </mxCell>
        <mxCell id="LuBEs2lfz9QCBgWBiHVj-6" value="Location&lt;br style=&quot;font-size: 13px;&quot;&gt;&lt;i&gt;&lt;br&gt;5.0&lt;/i&gt;" style="ellipse;whiteSpace=wrap;html=1;fontStyle=1;verticalAlign=middle;labelPosition=center;verticalLabelPosition=middle;align=center;fontSize=13;spacingTop=10;rounded=1;" parent="1" vertex="1">
          <mxGeometry x="400" y="360" width="80" height="80" as="geometry" />
        </mxCell>
        <mxCell id="NFY74eUJHhrziOp4A1hA-5" style="edgeStyle=orthogonalEdgeStyle;orthogonalLoop=1;jettySize=auto;html=1;exitX=1;exitY=0;exitDx=0;exitDy=0;entryX=0;entryY=0.25;entryDx=0;entryDy=0;rounded=1;" parent="1" source="LuBEs2lfz9QCBgWBiHVj-7" target="LuBEs2lfz9QCBgWBiHVj-74" edge="1">
          <mxGeometry relative="1" as="geometry" />
        </mxCell>
        <mxCell id="NFY74eUJHhrziOp4A1hA-9" value="Store Passenger Details" style="edgeLabel;html=1;align=center;verticalAlign=middle;resizable=0;points=[];rounded=1;fontSize=12;fontStyle=2" parent="NFY74eUJHhrziOp4A1hA-5" vertex="1" connectable="0">
          <mxGeometry x="-0.268" y="1" relative="1" as="geometry">
            <mxPoint x="-1" y="9" as="offset" />
          </mxGeometry>
        </mxCell>
        <mxCell id="LuBEs2lfz9QCBgWBiHVj-7" value="Passenger&lt;br style=&quot;font-size: 13px;&quot;&gt;&lt;i&gt;&lt;br&gt;6.0&lt;/i&gt;" style="ellipse;whiteSpace=wrap;html=1;fontStyle=1;verticalAlign=middle;labelPosition=center;verticalLabelPosition=middle;align=center;fontSize=13;spacingTop=10;rounded=1;" parent="1" vertex="1">
          <mxGeometry x="440" y="440" width="80" height="80" as="geometry" />
        </mxCell>
        <mxCell id="NFY74eUJHhrziOp4A1hA-7" style="edgeStyle=orthogonalEdgeStyle;orthogonalLoop=1;jettySize=auto;html=1;exitX=1;exitY=0.5;exitDx=0;exitDy=0;entryX=0;entryY=0.25;entryDx=0;entryDy=0;rounded=1;" parent="1" source="LuBEs2lfz9QCBgWBiHVj-10" target="LuBEs2lfz9QCBgWBiHVj-82" edge="1">
          <mxGeometry relative="1" as="geometry">
            <Array as="points">
              <mxPoint x="600" y="620" />
              <mxPoint x="600" y="618" />
            </Array>
          </mxGeometry>
        </mxCell>
        <mxCell id="NFY74eUJHhrziOp4A1hA-11" value="Store Schedule Details" style="edgeLabel;html=1;align=center;verticalAlign=middle;resizable=0;points=[];rounded=1;fontSize=12;fontStyle=2" parent="NFY74eUJHhrziOp4A1hA-7" vertex="1" connectable="0">
          <mxGeometry x="-0.4315" y="1" relative="1" as="geometry">
            <mxPoint x="18" y="-3" as="offset" />
          </mxGeometry>
        </mxCell>
        <mxCell id="LuBEs2lfz9QCBgWBiHVj-10" value="Schedule&lt;br style=&quot;font-size: 13px;&quot;&gt;&lt;i&gt;&lt;br&gt;7.0&lt;/i&gt;" style="ellipse;whiteSpace=wrap;html=1;fontStyle=1;verticalAlign=middle;labelPosition=center;verticalLabelPosition=middle;align=center;fontSize=13;spacingTop=10;rounded=1;" parent="1" vertex="1">
          <mxGeometry x="440" y="580" width="80" height="80" as="geometry" />
        </mxCell>
        <mxCell id="LuBEs2lfz9QCBgWBiHVj-108" style="edgeStyle=orthogonalEdgeStyle;rounded=1;orthogonalLoop=1;jettySize=auto;html=1;exitX=1;exitY=0.5;exitDx=0;exitDy=0;entryX=0;entryY=0.25;entryDx=0;entryDy=0;" parent="1" source="LuBEs2lfz9QCBgWBiHVj-11" target="LuBEs2lfz9QCBgWBiHVj-81" edge="1">
          <mxGeometry relative="1" as="geometry">
            <Array as="points">
              <mxPoint x="600" y="700" />
              <mxPoint x="600" y="693" />
            </Array>
          </mxGeometry>
        </mxCell>
        <mxCell id="LuBEs2lfz9QCBgWBiHVj-148" value="Store Stand Details" style="edgeLabel;html=1;align=center;verticalAlign=middle;resizable=0;points=[];fontSize=12;fontStyle=2;rounded=1;" parent="LuBEs2lfz9QCBgWBiHVj-108" vertex="1" connectable="0">
          <mxGeometry x="-0.3226" y="-2" relative="1" as="geometry">
            <mxPoint x="-24" y="-3" as="offset" />
          </mxGeometry>
        </mxCell>
        <mxCell id="LuBEs2lfz9QCBgWBiHVj-11" value="Stand&lt;br style=&quot;font-size: 13px;&quot;&gt;&lt;i&gt;&lt;br&gt;8.0&lt;/i&gt;" style="ellipse;whiteSpace=wrap;html=1;fontStyle=1;verticalAlign=middle;labelPosition=center;verticalLabelPosition=middle;align=center;fontSize=13;spacingTop=10;rounded=1;" parent="1" vertex="1">
          <mxGeometry x="400" y="660" width="80" height="80" as="geometry" />
        </mxCell>
        <mxCell id="LuBEs2lfz9QCBgWBiHVj-120" style="edgeStyle=orthogonalEdgeStyle;rounded=1;orthogonalLoop=1;jettySize=auto;html=1;exitX=1;exitY=0.5;exitDx=0;exitDy=0;entryX=0;entryY=0.25;entryDx=0;entryDy=0;" parent="1" source="LuBEs2lfz9QCBgWBiHVj-12" target="LuBEs2lfz9QCBgWBiHVj-79" edge="1">
          <mxGeometry relative="1" as="geometry">
            <Array as="points">
              <mxPoint x="600" y="860" />
              <mxPoint x="600" y="853" />
            </Array>
          </mxGeometry>
        </mxCell>
        <mxCell id="LuBEs2lfz9QCBgWBiHVj-152" value="Store Ticket Details" style="edgeLabel;html=1;align=center;verticalAlign=middle;resizable=0;points=[];fontSize=12;fontStyle=2;rounded=1;" parent="LuBEs2lfz9QCBgWBiHVj-120" vertex="1" connectable="0">
          <mxGeometry x="-0.4321" relative="1" as="geometry">
            <mxPoint x="33" y="-1" as="offset" />
          </mxGeometry>
        </mxCell>
        <mxCell id="LuBEs2lfz9QCBgWBiHVj-12" value="Ticket&lt;br style=&quot;font-size: 13px;&quot;&gt;&lt;i&gt;&lt;br&gt;10.0&lt;/i&gt;" style="ellipse;whiteSpace=wrap;html=1;fontStyle=1;verticalAlign=middle;labelPosition=center;verticalLabelPosition=middle;align=center;fontSize=13;spacingTop=10;rounded=1;" parent="1" vertex="1">
          <mxGeometry x="320" y="820" width="80" height="80" as="geometry" />
        </mxCell>
        <mxCell id="LuBEs2lfz9QCBgWBiHVj-112" style="edgeStyle=orthogonalEdgeStyle;rounded=1;orthogonalLoop=1;jettySize=auto;html=1;exitX=1;exitY=0.5;exitDx=0;exitDy=0;entryX=0;entryY=0.25;entryDx=0;entryDy=0;" parent="1" source="LuBEs2lfz9QCBgWBiHVj-13" target="LuBEs2lfz9QCBgWBiHVj-80" edge="1">
          <mxGeometry relative="1" as="geometry">
            <Array as="points">
              <mxPoint x="600" y="780" />
              <mxPoint x="600" y="773" />
            </Array>
          </mxGeometry>
        </mxCell>
        <mxCell id="LuBEs2lfz9QCBgWBiHVj-150" value="Store Tax Details" style="edgeLabel;html=1;align=center;verticalAlign=middle;resizable=0;points=[];fontSize=12;fontStyle=2;rounded=1;" parent="LuBEs2lfz9QCBgWBiHVj-112" vertex="1" connectable="0">
          <mxGeometry x="-0.1733" y="-1" relative="1" as="geometry">
            <mxPoint x="-26" y="-2" as="offset" />
          </mxGeometry>
        </mxCell>
        <mxCell id="LuBEs2lfz9QCBgWBiHVj-13" value="Tax&lt;br style=&quot;font-size: 13px;&quot;&gt;&lt;i&gt;&lt;br&gt;9.0&lt;/i&gt;" style="ellipse;whiteSpace=wrap;html=1;fontStyle=1;verticalAlign=middle;labelPosition=center;verticalLabelPosition=middle;align=center;fontSize=13;spacingTop=10;rounded=1;" parent="1" vertex="1">
          <mxGeometry x="360" y="740" width="80" height="80" as="geometry" />
        </mxCell>
        <mxCell id="LuBEs2lfz9QCBgWBiHVj-122" style="edgeStyle=orthogonalEdgeStyle;rounded=1;orthogonalLoop=1;jettySize=auto;html=1;exitX=1;exitY=0.5;exitDx=0;exitDy=0;entryX=0;entryY=0.25;entryDx=0;entryDy=0;" parent="1" source="LuBEs2lfz9QCBgWBiHVj-14" target="LuBEs2lfz9QCBgWBiHVj-77" edge="1">
          <mxGeometry relative="1" as="geometry">
            <Array as="points">
              <mxPoint x="600" y="940" />
              <mxPoint x="600" y="933" />
            </Array>
          </mxGeometry>
        </mxCell>
        <mxCell id="LuBEs2lfz9QCBgWBiHVj-154" value="Store Trip Details" style="edgeLabel;html=1;align=center;verticalAlign=middle;resizable=0;points=[];fontSize=12;fontStyle=2;rounded=1;" parent="LuBEs2lfz9QCBgWBiHVj-122" vertex="1" connectable="0">
          <mxGeometry x="-0.444" y="-1" relative="1" as="geometry">
            <mxPoint x="69" y="-3" as="offset" />
          </mxGeometry>
        </mxCell>
        <mxCell id="LuBEs2lfz9QCBgWBiHVj-14" value="Trip&lt;br style=&quot;font-size: 13px;&quot;&gt;&lt;i&gt;&lt;br&gt;11.0&lt;/i&gt;" style="ellipse;whiteSpace=wrap;html=1;fontStyle=1;verticalAlign=middle;labelPosition=center;verticalLabelPosition=middle;align=center;fontSize=13;spacingTop=10;rounded=1;" parent="1" vertex="1">
          <mxGeometry x="280" y="900" width="80" height="80" as="geometry" />
        </mxCell>
        <mxCell id="LuBEs2lfz9QCBgWBiHVj-60" style="edgeStyle=orthogonalEdgeStyle;rounded=1;orthogonalLoop=1;jettySize=auto;html=1;exitX=0;exitY=0;exitDx=0;exitDy=0;entryX=0;entryY=1;entryDx=0;entryDy=0;" parent="1" source="LuBEs2lfz9QCBgWBiHVj-15" target="LuBEs2lfz9QCBgWBiHVj-1" edge="1">
          <mxGeometry relative="1" as="geometry">
            <Array as="points">
              <mxPoint x="252" y="990" />
              <mxPoint x="40" y="990" />
            </Array>
          </mxGeometry>
        </mxCell>
        <mxCell id="vXCZ4wz8MtLpxU2cb6QZ-31" value="Receive Vehical Details" style="edgeLabel;html=1;align=center;verticalAlign=middle;resizable=0;points=[];fontStyle=2;fontSize=12;rounded=1;" parent="LuBEs2lfz9QCBgWBiHVj-60" vertex="1" connectable="0">
          <mxGeometry x="-0.4774" y="1" relative="1" as="geometry">
            <mxPoint x="24" as="offset" />
          </mxGeometry>
        </mxCell>
        <mxCell id="LuBEs2lfz9QCBgWBiHVj-124" style="edgeStyle=orthogonalEdgeStyle;rounded=1;orthogonalLoop=1;jettySize=auto;html=1;exitX=1;exitY=0.5;exitDx=0;exitDy=0;entryX=0;entryY=0.25;entryDx=0;entryDy=0;" parent="1" source="LuBEs2lfz9QCBgWBiHVj-15" target="LuBEs2lfz9QCBgWBiHVj-76" edge="1">
          <mxGeometry relative="1" as="geometry">
            <Array as="points">
              <mxPoint x="600" y="1020" />
              <mxPoint x="600" y="1013" />
            </Array>
          </mxGeometry>
        </mxCell>
        <mxCell id="LuBEs2lfz9QCBgWBiHVj-156" value="Store Vehical Details" style="edgeLabel;html=1;align=center;verticalAlign=middle;resizable=0;points=[];fontSize=12;fontStyle=2;rounded=1;" parent="LuBEs2lfz9QCBgWBiHVj-124" vertex="1" connectable="0">
          <mxGeometry x="-0.3391" y="-3" relative="1" as="geometry">
            <mxPoint x="67" y="-4" as="offset" />
          </mxGeometry>
        </mxCell>
        <mxCell id="LuBEs2lfz9QCBgWBiHVj-15" value="Vehical&lt;br style=&quot;font-size: 13px;&quot;&gt;&lt;i&gt;&lt;br&gt;12.0&lt;/i&gt;" style="ellipse;whiteSpace=wrap;html=1;fontStyle=1;verticalAlign=middle;labelPosition=center;verticalLabelPosition=middle;align=center;fontSize=13;spacingTop=10;rounded=1;" parent="1" vertex="1">
          <mxGeometry x="240" y="980" width="80" height="80" as="geometry" />
        </mxCell>
        <mxCell id="LuBEs2lfz9QCBgWBiHVj-41" style="edgeStyle=orthogonalEdgeStyle;rounded=1;orthogonalLoop=1;jettySize=auto;html=1;exitX=0;exitY=1;exitDx=0;exitDy=0;entryX=0.204;entryY=0;entryDx=0;entryDy=0;entryPerimeter=0;" parent="1" source="LuBEs2lfz9QCBgWBiHVj-3" target="LuBEs2lfz9QCBgWBiHVj-1" edge="1">
          <mxGeometry relative="1" as="geometry" />
        </mxCell>
        <mxCell id="vXCZ4wz8MtLpxU2cb6QZ-8" value="Receive Facility Details" style="edgeLabel;html=1;align=center;verticalAlign=middle;resizable=0;points=[];fontStyle=2;fontSize=12;rounded=1;" parent="LuBEs2lfz9QCBgWBiHVj-41" vertex="1" connectable="0">
          <mxGeometry x="-0.4045" y="1" relative="1" as="geometry">
            <mxPoint x="17" y="-1" as="offset" />
          </mxGeometry>
        </mxCell>
        <mxCell id="LuBEs2lfz9QCBgWBiHVj-42" style="edgeStyle=orthogonalEdgeStyle;rounded=1;orthogonalLoop=1;jettySize=auto;html=1;exitX=0;exitY=1;exitDx=0;exitDy=0;entryX=0.4;entryY=0;entryDx=0;entryDy=0;entryPerimeter=0;" parent="1" source="LuBEs2lfz9QCBgWBiHVj-4" target="LuBEs2lfz9QCBgWBiHVj-1" edge="1">
          <mxGeometry relative="1" as="geometry" />
        </mxCell>
        <mxCell id="vXCZ4wz8MtLpxU2cb6QZ-10" value="Receive Fleet Details" style="edgeLabel;html=1;align=center;verticalAlign=middle;resizable=0;points=[];fontStyle=2;fontSize=12;rounded=1;" parent="LuBEs2lfz9QCBgWBiHVj-42" vertex="1" connectable="0">
          <mxGeometry x="-0.2331" y="1" relative="1" as="geometry">
            <mxPoint x="23" y="-1" as="offset" />
          </mxGeometry>
        </mxCell>
        <mxCell id="LuBEs2lfz9QCBgWBiHVj-43" style="edgeStyle=orthogonalEdgeStyle;rounded=1;orthogonalLoop=1;jettySize=auto;html=1;exitX=0;exitY=1;exitDx=0;exitDy=0;entryX=0.599;entryY=-0.012;entryDx=0;entryDy=0;entryPerimeter=0;" parent="1" source="LuBEs2lfz9QCBgWBiHVj-5" target="LuBEs2lfz9QCBgWBiHVj-1" edge="1">
          <mxGeometry relative="1" as="geometry" />
        </mxCell>
        <mxCell id="vXCZ4wz8MtLpxU2cb6QZ-12" value="Receive Inquiry&amp;nbsp;Details" style="edgeLabel;html=1;align=center;verticalAlign=middle;resizable=0;points=[];fontStyle=2;fontSize=12;rounded=1;" parent="LuBEs2lfz9QCBgWBiHVj-43" vertex="1" connectable="0">
          <mxGeometry x="0.0042" y="-1" relative="1" as="geometry">
            <mxPoint x="36" as="offset" />
          </mxGeometry>
        </mxCell>
        <mxCell id="LuBEs2lfz9QCBgWBiHVj-45" style="edgeStyle=orthogonalEdgeStyle;rounded=1;orthogonalLoop=1;jettySize=auto;html=1;exitX=0;exitY=1;exitDx=0;exitDy=0;entryX=0.804;entryY=-0.004;entryDx=0;entryDy=0;entryPerimeter=0;" parent="1" source="LuBEs2lfz9QCBgWBiHVj-6" target="LuBEs2lfz9QCBgWBiHVj-1" edge="1">
          <mxGeometry relative="1" as="geometry" />
        </mxCell>
        <mxCell id="vXCZ4wz8MtLpxU2cb6QZ-14" value="Receive Location&amp;nbsp;Details" style="edgeLabel;html=1;align=center;verticalAlign=middle;resizable=0;points=[];fontStyle=2;fontSize=12;rounded=1;" parent="LuBEs2lfz9QCBgWBiHVj-45" vertex="1" connectable="0">
          <mxGeometry x="0.3109" y="1" relative="1" as="geometry">
            <mxPoint x="40" as="offset" />
          </mxGeometry>
        </mxCell>
        <mxCell id="LuBEs2lfz9QCBgWBiHVj-48" style="edgeStyle=orthogonalEdgeStyle;rounded=1;orthogonalLoop=1;jettySize=auto;html=1;exitX=0;exitY=0.5;exitDx=0;exitDy=0;entryX=0.985;entryY=0.071;entryDx=0;entryDy=0;entryPerimeter=0;" parent="1" source="LuBEs2lfz9QCBgWBiHVj-7" target="LuBEs2lfz9QCBgWBiHVj-1" edge="1">
          <mxGeometry relative="1" as="geometry" />
        </mxCell>
        <mxCell id="vXCZ4wz8MtLpxU2cb6QZ-16" value="Receive Passenger Details" style="edgeLabel;html=1;align=center;verticalAlign=middle;resizable=0;points=[];fontStyle=2;fontSize=12;rounded=1;" parent="LuBEs2lfz9QCBgWBiHVj-48" vertex="1" connectable="0">
          <mxGeometry x="0.534" relative="1" as="geometry">
            <mxPoint x="48" as="offset" />
          </mxGeometry>
        </mxCell>
        <mxCell id="LuBEs2lfz9QCBgWBiHVj-61" style="edgeStyle=orthogonalEdgeStyle;rounded=1;orthogonalLoop=1;jettySize=auto;html=1;exitX=0;exitY=0;exitDx=0;exitDy=0;entryX=0.191;entryY=1.005;entryDx=0;entryDy=0;entryPerimeter=0;" parent="1" source="LuBEs2lfz9QCBgWBiHVj-14" target="LuBEs2lfz9QCBgWBiHVj-1" edge="1">
          <mxGeometry relative="1" as="geometry" />
        </mxCell>
        <mxCell id="vXCZ4wz8MtLpxU2cb6QZ-29" value="Receive Trip Details" style="edgeLabel;html=1;align=center;verticalAlign=middle;resizable=0;points=[];fontStyle=2;fontSize=12;rounded=1;" parent="LuBEs2lfz9QCBgWBiHVj-61" vertex="1" connectable="0">
          <mxGeometry x="-0.3866" y="1" relative="1" as="geometry">
            <mxPoint x="19" y="-1" as="offset" />
          </mxGeometry>
        </mxCell>
        <mxCell id="LuBEs2lfz9QCBgWBiHVj-62" style="edgeStyle=orthogonalEdgeStyle;rounded=1;orthogonalLoop=1;jettySize=auto;html=1;exitX=0;exitY=0;exitDx=0;exitDy=0;entryX=0.406;entryY=1.008;entryDx=0;entryDy=0;entryPerimeter=0;" parent="1" source="LuBEs2lfz9QCBgWBiHVj-12" target="LuBEs2lfz9QCBgWBiHVj-1" edge="1">
          <mxGeometry relative="1" as="geometry">
            <Array as="points">
              <mxPoint x="121" y="832" />
              <mxPoint x="121" y="611" />
            </Array>
          </mxGeometry>
        </mxCell>
        <mxCell id="vXCZ4wz8MtLpxU2cb6QZ-27" value="Receive Ticket Details" style="edgeLabel;html=1;align=center;verticalAlign=middle;resizable=0;points=[];fontStyle=2;fontSize=12;rounded=1;" parent="LuBEs2lfz9QCBgWBiHVj-62" vertex="1" connectable="0">
          <mxGeometry x="-0.399" y="-1" relative="1" as="geometry">
            <mxPoint x="-4" as="offset" />
          </mxGeometry>
        </mxCell>
        <mxCell id="LuBEs2lfz9QCBgWBiHVj-64" style="edgeStyle=orthogonalEdgeStyle;rounded=1;orthogonalLoop=1;jettySize=auto;html=1;exitX=0;exitY=0;exitDx=0;exitDy=0;" parent="1" source="LuBEs2lfz9QCBgWBiHVj-13" edge="1">
          <mxGeometry relative="1" as="geometry">
            <mxPoint x="160" y="610" as="targetPoint" />
          </mxGeometry>
        </mxCell>
        <mxCell id="vXCZ4wz8MtLpxU2cb6QZ-25" value="Receive Tax Details" style="edgeLabel;html=1;align=center;verticalAlign=middle;resizable=0;points=[];fontStyle=2;fontSize=12;rounded=1;" parent="LuBEs2lfz9QCBgWBiHVj-64" vertex="1" connectable="0">
          <mxGeometry x="-0.2233" relative="1" as="geometry">
            <mxPoint x="-2" y="-1" as="offset" />
          </mxGeometry>
        </mxCell>
        <mxCell id="LuBEs2lfz9QCBgWBiHVj-65" style="edgeStyle=orthogonalEdgeStyle;rounded=1;orthogonalLoop=1;jettySize=auto;html=1;exitX=0;exitY=0;exitDx=0;exitDy=0;entryX=0.804;entryY=1.01;entryDx=0;entryDy=0;entryPerimeter=0;" parent="1" source="LuBEs2lfz9QCBgWBiHVj-11" target="LuBEs2lfz9QCBgWBiHVj-1" edge="1">
          <mxGeometry relative="1" as="geometry">
            <Array as="points">
              <mxPoint x="201" y="672" />
              <mxPoint x="201" y="613" />
              <mxPoint x="201" y="613" />
            </Array>
          </mxGeometry>
        </mxCell>
        <mxCell id="vXCZ4wz8MtLpxU2cb6QZ-23" value="Receive Stand Details" style="edgeLabel;html=1;align=center;verticalAlign=middle;resizable=0;points=[];fontStyle=2;fontSize=12;rounded=1;" parent="LuBEs2lfz9QCBgWBiHVj-65" vertex="1" connectable="0">
          <mxGeometry x="0.1426" y="1" relative="1" as="geometry">
            <mxPoint x="21" y="-1" as="offset" />
          </mxGeometry>
        </mxCell>
        <mxCell id="LuBEs2lfz9QCBgWBiHVj-66" style="edgeStyle=orthogonalEdgeStyle;rounded=1;orthogonalLoop=1;jettySize=auto;html=1;entryX=1;entryY=0.868;entryDx=0;entryDy=0;entryPerimeter=0;exitX=0.058;exitY=0.248;exitDx=0;exitDy=0;exitPerimeter=0;" parent="1" source="LuBEs2lfz9QCBgWBiHVj-10" edge="1">
          <mxGeometry relative="1" as="geometry">
            <mxPoint x="440" y="600" as="sourcePoint" />
            <mxPoint x="240" y="600.0100000000001" as="targetPoint" />
            <Array as="points" />
          </mxGeometry>
        </mxCell>
        <mxCell id="vXCZ4wz8MtLpxU2cb6QZ-21" value="Receive Schedule Details" style="edgeLabel;html=1;align=center;verticalAlign=middle;resizable=0;points=[];fontStyle=2;fontSize=12;rounded=1;" parent="LuBEs2lfz9QCBgWBiHVj-66" vertex="1" connectable="0">
          <mxGeometry x="0.4964" y="1" relative="1" as="geometry">
            <mxPoint x="47" as="offset" />
          </mxGeometry>
        </mxCell>
        <mxCell id="LuBEs2lfz9QCBgWBiHVj-119" style="edgeStyle=orthogonalEdgeStyle;rounded=1;orthogonalLoop=1;jettySize=auto;html=1;exitX=0;exitY=0.75;exitDx=0;exitDy=0;entryX=1;entryY=0.5;entryDx=0;entryDy=0;" parent="1" source="LuBEs2lfz9QCBgWBiHVj-69" target="LuBEs2lfz9QCBgWBiHVj-2" edge="1">
          <mxGeometry relative="1" as="geometry">
            <Array as="points">
              <mxPoint x="600" y="88" />
              <mxPoint x="600" y="80" />
            </Array>
          </mxGeometry>
        </mxCell>
        <mxCell id="LuBEs2lfz9QCBgWBiHVj-127" value="Get Country Details" style="edgeLabel;html=1;align=center;verticalAlign=middle;resizable=0;points=[];fontSize=12;fontStyle=2;rounded=1;" parent="LuBEs2lfz9QCBgWBiHVj-119" vertex="1" connectable="0">
          <mxGeometry x="-0.1396" y="3" relative="1" as="geometry">
            <mxPoint x="-27" y="-3" as="offset" />
          </mxGeometry>
        </mxCell>
        <mxCell id="LuBEs2lfz9QCBgWBiHVj-69" value="&lt;b&gt;&lt;font style=&quot;font-size: 15px;&quot;&gt;Country&lt;/font&gt;&lt;/b&gt;" style="html=1;dashed=0;whiteSpace=wrap;shape=partialRectangle;right=0;left=0;rounded=1;" parent="1" vertex="1">
          <mxGeometry x="720" y="65" width="100" height="30" as="geometry" />
        </mxCell>
        <mxCell id="LuBEs2lfz9QCBgWBiHVj-117" style="edgeStyle=orthogonalEdgeStyle;rounded=1;orthogonalLoop=1;jettySize=auto;html=1;exitX=0;exitY=0.75;exitDx=0;exitDy=0;entryX=1;entryY=0.5;entryDx=0;entryDy=0;" parent="1" source="LuBEs2lfz9QCBgWBiHVj-70" target="LuBEs2lfz9QCBgWBiHVj-3" edge="1">
          <mxGeometry relative="1" as="geometry">
            <Array as="points">
              <mxPoint x="600" y="168" />
              <mxPoint x="600" y="160" />
            </Array>
          </mxGeometry>
        </mxCell>
        <mxCell id="LuBEs2lfz9QCBgWBiHVj-129" value="Get Facility Details" style="edgeLabel;html=1;align=center;verticalAlign=middle;resizable=0;points=[];fontStyle=2;fontSize=12;rounded=1;" parent="LuBEs2lfz9QCBgWBiHVj-117" vertex="1" connectable="0">
          <mxGeometry x="0.0977" y="1" relative="1" as="geometry">
            <mxPoint x="3" y="-1" as="offset" />
          </mxGeometry>
        </mxCell>
        <mxCell id="LuBEs2lfz9QCBgWBiHVj-70" value="&lt;span style=&quot;font-size: 15px;&quot;&gt;&lt;b&gt;Facility&lt;/b&gt;&lt;/span&gt;" style="html=1;dashed=0;whiteSpace=wrap;shape=partialRectangle;right=0;left=0;rounded=1;" parent="1" vertex="1">
          <mxGeometry x="720" y="145" width="100" height="30" as="geometry" />
        </mxCell>
        <mxCell id="LuBEs2lfz9QCBgWBiHVj-115" style="edgeStyle=orthogonalEdgeStyle;rounded=1;orthogonalLoop=1;jettySize=auto;html=1;exitX=0;exitY=0.75;exitDx=0;exitDy=0;entryX=1;entryY=0.5;entryDx=0;entryDy=0;" parent="1" source="LuBEs2lfz9QCBgWBiHVj-71" target="LuBEs2lfz9QCBgWBiHVj-4" edge="1">
          <mxGeometry relative="1" as="geometry">
            <Array as="points">
              <mxPoint x="600" y="248" />
              <mxPoint x="600" y="240" />
            </Array>
          </mxGeometry>
        </mxCell>
        <mxCell id="LuBEs2lfz9QCBgWBiHVj-131" value="Get Fleet Details" style="edgeLabel;html=1;align=center;verticalAlign=middle;resizable=0;points=[];fontSize=12;fontStyle=2;rounded=1;" parent="LuBEs2lfz9QCBgWBiHVj-115" vertex="1" connectable="0">
          <mxGeometry x="0.4331" y="4" relative="1" as="geometry">
            <mxPoint x="41" y="-4" as="offset" />
          </mxGeometry>
        </mxCell>
        <mxCell id="LuBEs2lfz9QCBgWBiHVj-71" value="&lt;span style=&quot;font-size: 15px;&quot;&gt;&lt;b&gt;Fleet&lt;/b&gt;&lt;/span&gt;" style="html=1;dashed=0;whiteSpace=wrap;shape=partialRectangle;right=0;left=0;rounded=1;" parent="1" vertex="1">
          <mxGeometry x="720" y="225" width="100" height="30" as="geometry" />
        </mxCell>
        <mxCell id="LuBEs2lfz9QCBgWBiHVj-111" style="edgeStyle=orthogonalEdgeStyle;rounded=1;orthogonalLoop=1;jettySize=auto;html=1;exitX=0;exitY=0.75;exitDx=0;exitDy=0;entryX=1;entryY=0.5;entryDx=0;entryDy=0;" parent="1" source="LuBEs2lfz9QCBgWBiHVj-72" target="LuBEs2lfz9QCBgWBiHVj-5" edge="1">
          <mxGeometry relative="1" as="geometry">
            <Array as="points">
              <mxPoint x="600" y="327" />
              <mxPoint x="600" y="320" />
            </Array>
          </mxGeometry>
        </mxCell>
        <mxCell id="LuBEs2lfz9QCBgWBiHVj-133" value="Get Inquiry Details" style="edgeLabel;html=1;align=center;verticalAlign=middle;resizable=0;points=[];fontSize=12;fontStyle=2;rounded=1;" parent="LuBEs2lfz9QCBgWBiHVj-111" vertex="1" connectable="0">
          <mxGeometry x="0.3542" y="-1" relative="1" as="geometry">
            <mxPoint x="-3" y="1" as="offset" />
          </mxGeometry>
        </mxCell>
        <mxCell id="LuBEs2lfz9QCBgWBiHVj-72" value="Inquiry" style="html=1;dashed=0;whiteSpace=wrap;shape=partialRectangle;right=0;left=0;fontStyle=1;fontSize=15;rounded=1;" parent="1" vertex="1">
          <mxGeometry x="720" y="305" width="100" height="30" as="geometry" />
        </mxCell>
        <mxCell id="LuBEs2lfz9QCBgWBiHVj-107" style="edgeStyle=orthogonalEdgeStyle;rounded=1;orthogonalLoop=1;jettySize=auto;html=1;exitX=0;exitY=0.75;exitDx=0;exitDy=0;entryX=1;entryY=0.5;entryDx=0;entryDy=0;" parent="1" source="LuBEs2lfz9QCBgWBiHVj-73" target="LuBEs2lfz9QCBgWBiHVj-6" edge="1">
          <mxGeometry relative="1" as="geometry" />
        </mxCell>
        <mxCell id="LuBEs2lfz9QCBgWBiHVj-135" value="Get Location&amp;nbsp;Details" style="edgeLabel;html=1;align=center;verticalAlign=middle;resizable=0;points=[];fontSize=12;fontStyle=2;rounded=1;" parent="LuBEs2lfz9QCBgWBiHVj-107" vertex="1" connectable="0">
          <mxGeometry x="0.3804" relative="1" as="geometry">
            <mxPoint x="7" y="2" as="offset" />
          </mxGeometry>
        </mxCell>
        <mxCell id="LuBEs2lfz9QCBgWBiHVj-73" value="Location" style="html=1;dashed=0;whiteSpace=wrap;shape=partialRectangle;right=0;left=0;fontStyle=1;fontSize=15;rounded=1;" parent="1" vertex="1">
          <mxGeometry x="720" y="385" width="100" height="30" as="geometry" />
        </mxCell>
        <mxCell id="LuBEs2lfz9QCBgWBiHVj-74" value="Passenger" style="html=1;dashed=0;whiteSpace=wrap;shape=partialRectangle;right=0;left=0;fontStyle=1;fontSize=15;rounded=1;" parent="1" vertex="1">
          <mxGeometry x="720" y="460" width="100" height="30" as="geometry" />
        </mxCell>
        <mxCell id="LuBEs2lfz9QCBgWBiHVj-125" style="edgeStyle=orthogonalEdgeStyle;rounded=1;orthogonalLoop=1;jettySize=auto;html=1;exitX=0;exitY=0.75;exitDx=0;exitDy=0;entryX=1;entryY=1;entryDx=0;entryDy=0;" parent="1" source="LuBEs2lfz9QCBgWBiHVj-76" target="LuBEs2lfz9QCBgWBiHVj-15" edge="1">
          <mxGeometry relative="1" as="geometry">
            <Array as="points">
              <mxPoint x="620" y="1028" />
              <mxPoint x="620" y="1048" />
            </Array>
          </mxGeometry>
        </mxCell>
        <mxCell id="LuBEs2lfz9QCBgWBiHVj-157" value="Get Vehical Details" style="edgeLabel;html=1;align=center;verticalAlign=middle;resizable=0;points=[];fontSize=12;fontStyle=2;rounded=1;" parent="LuBEs2lfz9QCBgWBiHVj-125" vertex="1" connectable="0">
          <mxGeometry x="0.3424" y="1" relative="1" as="geometry">
            <mxPoint x="97" y="-3" as="offset" />
          </mxGeometry>
        </mxCell>
        <mxCell id="LuBEs2lfz9QCBgWBiHVj-76" value="Vehical" style="html=1;dashed=0;whiteSpace=wrap;shape=partialRectangle;right=0;left=0;fontStyle=1;fontSize=15;rounded=1;" parent="1" vertex="1">
          <mxGeometry x="720" y="1005" width="100" height="30" as="geometry" />
        </mxCell>
        <mxCell id="LuBEs2lfz9QCBgWBiHVj-123" style="edgeStyle=orthogonalEdgeStyle;rounded=1;orthogonalLoop=1;jettySize=auto;html=1;exitX=0;exitY=0.75;exitDx=0;exitDy=0;entryX=1;entryY=1;entryDx=0;entryDy=0;" parent="1" source="LuBEs2lfz9QCBgWBiHVj-77" target="LuBEs2lfz9QCBgWBiHVj-14" edge="1">
          <mxGeometry relative="1" as="geometry">
            <Array as="points">
              <mxPoint x="620" y="948" />
              <mxPoint x="620" y="968" />
            </Array>
          </mxGeometry>
        </mxCell>
        <mxCell id="LuBEs2lfz9QCBgWBiHVj-155" value="Get Trip Details" style="edgeLabel;html=1;align=center;verticalAlign=middle;resizable=0;points=[];fontSize=12;fontStyle=2;rounded=1;" parent="LuBEs2lfz9QCBgWBiHVj-123" vertex="1" connectable="0">
          <mxGeometry x="0.3009" y="-2" relative="1" as="geometry">
            <mxPoint x="72" as="offset" />
          </mxGeometry>
        </mxCell>
        <mxCell id="LuBEs2lfz9QCBgWBiHVj-77" value="Trip" style="html=1;dashed=0;whiteSpace=wrap;shape=partialRectangle;right=0;left=0;fontStyle=1;fontSize=15;rounded=1;" parent="1" vertex="1">
          <mxGeometry x="720" y="925" width="100" height="30" as="geometry" />
        </mxCell>
        <mxCell id="LuBEs2lfz9QCBgWBiHVj-121" style="edgeStyle=orthogonalEdgeStyle;rounded=1;orthogonalLoop=1;jettySize=auto;html=1;exitX=0;exitY=0.75;exitDx=0;exitDy=0;entryX=1;entryY=1;entryDx=0;entryDy=0;" parent="1" source="LuBEs2lfz9QCBgWBiHVj-79" target="LuBEs2lfz9QCBgWBiHVj-12" edge="1">
          <mxGeometry relative="1" as="geometry">
            <Array as="points">
              <mxPoint x="620" y="868" />
              <mxPoint x="620" y="888" />
            </Array>
          </mxGeometry>
        </mxCell>
        <mxCell id="LuBEs2lfz9QCBgWBiHVj-153" value="Get Ticket Details" style="edgeLabel;html=1;align=center;verticalAlign=middle;resizable=0;points=[];fontSize=12;fontStyle=2;rounded=1;" parent="LuBEs2lfz9QCBgWBiHVj-121" vertex="1" connectable="0">
          <mxGeometry x="0.3303" y="3" relative="1" as="geometry">
            <mxPoint x="45" y="-5" as="offset" />
          </mxGeometry>
        </mxCell>
        <mxCell id="LuBEs2lfz9QCBgWBiHVj-79" value="Ticket" style="html=1;dashed=0;whiteSpace=wrap;shape=partialRectangle;right=0;left=0;fontStyle=1;fontSize=15;rounded=1;" parent="1" vertex="1">
          <mxGeometry x="720" y="845" width="100" height="30" as="geometry" />
        </mxCell>
        <mxCell id="LuBEs2lfz9QCBgWBiHVj-113" style="edgeStyle=orthogonalEdgeStyle;rounded=1;orthogonalLoop=1;jettySize=auto;html=1;exitX=0;exitY=0.75;exitDx=0;exitDy=0;entryX=1;entryY=1;entryDx=0;entryDy=0;" parent="1" source="LuBEs2lfz9QCBgWBiHVj-80" target="LuBEs2lfz9QCBgWBiHVj-13" edge="1">
          <mxGeometry relative="1" as="geometry">
            <Array as="points">
              <mxPoint x="620" y="787" />
              <mxPoint x="620" y="808" />
            </Array>
          </mxGeometry>
        </mxCell>
        <mxCell id="LuBEs2lfz9QCBgWBiHVj-151" value="Get Tax Details" style="edgeLabel;html=1;align=center;verticalAlign=middle;resizable=0;points=[];fontSize=12;fontStyle=2;rounded=1;" parent="LuBEs2lfz9QCBgWBiHVj-113" vertex="1" connectable="0">
          <mxGeometry x="0.1699" relative="1" as="geometry">
            <mxPoint y="-1" as="offset" />
          </mxGeometry>
        </mxCell>
        <mxCell id="LuBEs2lfz9QCBgWBiHVj-80" value="Tax" style="html=1;dashed=0;whiteSpace=wrap;shape=partialRectangle;right=0;left=0;fontStyle=1;fontSize=15;rounded=1;" parent="1" vertex="1">
          <mxGeometry x="720" y="765" width="100" height="30" as="geometry" />
        </mxCell>
        <mxCell id="LuBEs2lfz9QCBgWBiHVj-109" style="edgeStyle=orthogonalEdgeStyle;rounded=1;orthogonalLoop=1;jettySize=auto;html=1;exitX=0;exitY=0.75;exitDx=0;exitDy=0;entryX=1;entryY=1;entryDx=0;entryDy=0;" parent="1" source="LuBEs2lfz9QCBgWBiHVj-81" target="LuBEs2lfz9QCBgWBiHVj-11" edge="1">
          <mxGeometry relative="1" as="geometry">
            <Array as="points">
              <mxPoint x="620" y="707" />
              <mxPoint x="620" y="728" />
            </Array>
          </mxGeometry>
        </mxCell>
        <mxCell id="LuBEs2lfz9QCBgWBiHVj-149" value="Get Stand Details" style="edgeLabel;html=1;align=center;verticalAlign=middle;resizable=0;points=[];fontSize=12;fontStyle=2;rounded=1;" parent="LuBEs2lfz9QCBgWBiHVj-109" vertex="1" connectable="0">
          <mxGeometry x="0.3478" y="2" relative="1" as="geometry">
            <mxPoint x="-6" y="-4" as="offset" />
          </mxGeometry>
        </mxCell>
        <mxCell id="LuBEs2lfz9QCBgWBiHVj-81" value="Stand" style="html=1;dashed=0;whiteSpace=wrap;shape=partialRectangle;right=0;left=0;fontStyle=1;fontSize=15;rounded=1;" parent="1" vertex="1">
          <mxGeometry x="720" y="685" width="100" height="30" as="geometry" />
        </mxCell>
        <mxCell id="NFY74eUJHhrziOp4A1hA-8" style="edgeStyle=orthogonalEdgeStyle;orthogonalLoop=1;jettySize=auto;html=1;exitX=0;exitY=0.75;exitDx=0;exitDy=0;entryX=1;entryY=1;entryDx=0;entryDy=0;rounded=1;" parent="1" source="LuBEs2lfz9QCBgWBiHVj-82" target="LuBEs2lfz9QCBgWBiHVj-10" edge="1">
          <mxGeometry relative="1" as="geometry" />
        </mxCell>
        <mxCell id="NFY74eUJHhrziOp4A1hA-12" value="Get Schedule Details" style="edgeLabel;html=1;align=center;verticalAlign=middle;resizable=0;points=[];rounded=1;fontSize=12;fontStyle=2" parent="NFY74eUJHhrziOp4A1hA-8" vertex="1" connectable="0">
          <mxGeometry x="0.4965" y="-1" relative="1" as="geometry">
            <mxPoint x="25" y="-7" as="offset" />
          </mxGeometry>
        </mxCell>
        <mxCell id="LuBEs2lfz9QCBgWBiHVj-82" value="Schedule" style="html=1;dashed=0;whiteSpace=wrap;shape=partialRectangle;right=0;left=0;fontStyle=1;fontSize=15;rounded=1;" parent="1" vertex="1">
          <mxGeometry x="720" y="610" width="100" height="30" as="geometry" />
        </mxCell>
        <mxCell id="NFY74eUJHhrziOp4A1hA-6" style="edgeStyle=orthogonalEdgeStyle;orthogonalLoop=1;jettySize=auto;html=1;exitX=0;exitY=0.75;exitDx=0;exitDy=0;entryX=1;entryY=0.5;entryDx=0;entryDy=0;rounded=1;" parent="1" source="LuBEs2lfz9QCBgWBiHVj-74" target="LuBEs2lfz9QCBgWBiHVj-7" edge="1">
          <mxGeometry relative="1" as="geometry">
            <mxPoint x="524" y="480" as="targetPoint" />
          </mxGeometry>
        </mxCell>
        <mxCell id="NFY74eUJHhrziOp4A1hA-10" value="Get Passenger Details" style="edgeLabel;html=1;align=center;verticalAlign=middle;resizable=0;points=[];rounded=1;fontSize=12;fontStyle=2" parent="NFY74eUJHhrziOp4A1hA-6" vertex="1" connectable="0">
          <mxGeometry x="0.3763" y="2" relative="1" as="geometry">
            <mxPoint x="21" as="offset" />
          </mxGeometry>
        </mxCell>
      </root>
    </mxGraphModel>
  </diagram>
</mxfile>
